<svg width="125" height="109" viewBox="0 0 125 109" fill="none" xmlns="http://www.w3.org/2000/svg">
<path d="M56.1761 90.2567C50.1761 77.8567 39.6761 77.09 35.1761 78.2567C33.8428 78.2567 29.8763 78.6567 24.6763 80.2568C19.4763 81.8569 12.1761 80.9235 9.17607 80.2568C0.376069 77.8568 -0.490598 65.5902 0.176069 59.7568C9.67607 35.2568 32.6761 19.2568 48.1761 11.2568C60.5761 4.85684 78.3427 1.2569 85.6761 0.256936C97.6761 -1.74306 102.676 8.4236 103.676 13.7569C101.676 28.9569 102.843 72.7569 103.676 92.7569C102.476 104.357 89.1761 107.924 82.6761 108.257C72.1761 107.757 63.6761 105.757 56.1761 90.2567Z" fill="#E6F1FF"/>
<path d="M59.7546 76.0916C54.9546 65.6916 44.7546 64.0916 40.2546 64.5916C40.9214 64.0917 39.0549 63.7918 26.2549 66.5918C13.4549 69.3918 5.92138 66.425 3.75463 64.5916C-3.04537 57.7914 0.921299 45.0917 3.75463 39.5918C7.08797 34.4251 17.6546 22.6918 33.2546 17.0918C48.8546 11.4918 66.7546 8.09182 73.7546 7.09182C81.7546 6.59182 100.255 7.89182 110.255 17.0918C122.755 28.5918 124.755 41.0918 124.255 52.5918C123.755 64.0918 107.755 76.0916 97.7546 82.0918C87.7546 88.092 65.7546 89.0916 59.7546 76.0916Z" fill="#18E7D7" fill-opacity="0.5"/>
</svg>
