<svg width="238" height="236" viewBox="0 0 238 236" fill="none" xmlns="http://www.w3.org/2000/svg">
<path d="M183.166 22.135C151.566 -13.065 105.666 1.46829 86.6664 13.135C55.0667 27.9349 37.4999 39.635 32.6664 43.635C-21.3336 90.635 7.66639 140.635 8.66639 143.635C9.46639 146.035 35.6664 187.968 48.6664 208.635C80.2664 248.635 129.5 235.968 150.166 224.635C155.366 220.635 189 200.302 205.166 190.635C249.166 154.635 238.833 110.302 228.166 92.635C216.566 65.035 193.333 34.135 183.166 22.135Z" fill="#EDF5FF"/>
<circle cx="111" cy="221" r="2" fill="#6498F9" fill-opacity="0.5"/>
<circle cx="107" cy="211" r="1" fill="#6498F9" fill-opacity="0.5"/>
<circle cx="21" cy="221" r="2" fill="#6498F9" fill-opacity="0.5"/>
<circle cx="21" cy="121" r="2" fill="#6498F9" fill-opacity="0.5"/>
<circle cx="26" cy="115" r="1" fill="#6498F9" fill-opacity="0.5"/>
<circle cx="22" cy="90" r="1" fill="#6498F9" fill-opacity="0.5"/>
<circle cx="156" cy="32" r="2" fill="#6498F9" fill-opacity="0.5"/>
<circle cx="223.5" cy="125.5" r="2.5" fill="#6498F9" fill-opacity="0.5"/>
<circle cx="201" cy="141" r="2" fill="#6498F9" fill-opacity="0.5"/>
<circle cx="179.5" cy="180.5" r="1.5" fill="#6498F9" fill-opacity="0.5"/>
<rect x="78.875" y="199" width="3.25" height="13" rx="1.625" fill="#8AB0F8"/>
<rect x="74" y="207.125" width="3.25" height="13" rx="1.625" transform="rotate(-90 74 207.125)" fill="#8AB0F8"/>
<rect x="125" y="14" width="4" height="16" rx="2" fill="#8AB0F8"/>
<rect x="119" y="24" width="4" height="16" rx="2" transform="rotate(-90 119 24)" fill="#8AB0F8"/>
<circle cx="113" cy="117" r="63" fill="#3A517E"/>
<path d="M185.179 46.8345L185.179 46.8351C186.515 53.0672 186.516 57.9423 186.496 62.8604V62.8623C186.496 82.6866 175.823 94.6789 161.722 103.669L161.491 103.817V104.091V124.481C161.491 127.828 159.604 130.915 156.592 132.411L156.59 132.412L137.31 142.059C134.536 143.438 131.254 141.412 131.254 138.308V119.735V118.954L130.545 119.281C128.044 120.433 125.557 121.588 123.166 122.783C122.147 123.293 120.934 123.096 120.129 122.291L107.704 109.87C106.9 109.065 106.703 107.852 107.212 106.834C108.407 104.445 109.582 101.959 110.735 99.4567L111.062 98.7473H110.281H91.7032C88.5763 98.7473 86.5547 95.4847 87.9504 92.694L97.6008 73.398C99.0985 70.4033 102.168 68.4988 105.534 68.4988H125.89H126.165L126.312 68.2668C135.284 54.1322 147.24 43.5 167.168 43.5C172.069 43.5 176.946 43.501 183.18 44.8365L183.18 44.8366C184.179 45.0494 184.966 45.8362 185.179 46.8345ZM155.259 64.874C155.259 70.3258 159.683 74.7485 165.136 74.7485C170.589 74.7485 175.013 70.3258 175.013 64.874C175.013 59.4222 170.589 54.9994 165.136 54.9994C159.683 54.9994 155.259 59.4222 155.259 64.874Z" fill="url(#paint0_linear)" stroke="white"/>
<circle cx="66" cy="111" r="2" fill="#C4C4C4" fill-opacity="0.3"/>
<circle cx="118" cy="149" r="2" fill="#C4C4C4" fill-opacity="0.3"/>
<circle cx="147" cy="149" r="2" fill="#C4C4C4" fill-opacity="0.3"/>
<circle cx="152" cy="155" r="1" fill="#C4C4C4" fill-opacity="0.3"/>
<circle cx="158.5" cy="145.5" r="0.5" fill="#C4C4C4" fill-opacity="0.3"/>
<circle cx="123" cy="160" r="1" fill="#C4C4C4" fill-opacity="0.3"/>
<circle cx="128.5" cy="158.5" r="0.5" fill="#C4C4C4" fill-opacity="0.3"/>
<circle cx="84" cy="78" r="2" fill="#C4C4C4" fill-opacity="0.3"/>
<circle cx="111" cy="59" r="2" fill="#C4C4C4" fill-opacity="0.3"/>
<circle cx="118.5" cy="61.5" r="0.5" transform="rotate(-180 118.5 61.5)" fill="#C4C4C4" fill-opacity="0.3"/>
<circle cx="72" cy="115" r="1" fill="#C4C4C4" fill-opacity="0.3"/>
<circle cx="77" cy="115" r="1" fill="#C4C4C4" fill-opacity="0.3"/>
<circle cx="79" cy="105" r="1" fill="#C4C4C4" fill-opacity="0.3"/>
<circle cx="73" cy="81" r="1" fill="#C4C4C4" fill-opacity="0.3"/>
<path fill-rule="evenodd" clip-rule="evenodd" d="M53.4995 129C53.9657 126.203 52.1063 122.699 50.1641 121.588C52.5143 154.24 79.7486 180 113 180C115.797 180 118.551 179.818 121.252 179.464C119.84 179.233 117.253 178.384 116.5 176.5C116.178 175.697 116.218 175.049 116.255 174.456C116.332 173.203 116.394 172.197 113 170.5C111.156 169.578 106.5 166.5 108.5 164C110.1 162 108.5 160.167 107.5 159.5C106.827 159.265 106.121 159.125 105.439 158.989C102.736 158.452 100.403 157.988 102 152C102.745 149.204 102.234 148.324 101.707 147.416C101.357 146.813 101 146.198 101 145C100.661 144.459 101.363 143.619 102.207 142.61C103.441 141.134 104.978 139.295 104 137.5C100.422 130.941 102.177 130.96 104.496 130.984C106.066 131 107.894 131.019 108.5 129C108.623 128.589 108.535 128.183 108.432 127.711C108.282 127.023 108.102 126.193 108.5 125C108.894 123.818 108.046 123.878 106.934 123.956C106.635 123.977 106.317 124 106 124C105.431 124 105.15 124.287 104.747 124.699C104.088 125.373 103.104 126.379 99.9995 127C99.0816 127.459 99.118 128.021 99.1652 128.747C99.2378 129.867 99.3358 131.377 95.9995 133.5C95.0295 134.118 95.2279 134.74 95.4089 135.307C95.7356 136.332 96.0058 137.178 89.2495 137.5C84.7944 140.099 83.3992 139.28 81.8298 138.358C81.2856 138.038 80.7205 137.706 79.9995 137.5C78.7116 137.132 78.1007 137.509 77.4942 137.883C76.4525 138.525 75.4236 139.16 70.9995 136C69.9299 135.236 69.2146 135.467 68.4299 135.721C67.4761 136.03 66.4196 136.372 64.4995 135C64.3866 134.864 64.2767 134.711 64.1599 134.547C63.4151 133.504 62.3897 132.068 58.4995 132.5C54.8818 132.902 52.9995 132 53.4995 129ZM93.9998 147.5C94.1665 148.167 94.3998 149.6 93.9998 150C93.8137 150.186 93.5582 150.303 93.2851 150.428C92.8245 150.639 92.3137 150.872 91.9998 151.5C91.8217 151.856 91.7705 152.339 91.7106 152.904V152.904C91.6023 153.924 91.4656 155.212 90.4998 156.5C89.6665 156.333 88.1998 155.6 88.9998 154C89.7998 152.4 90.6666 151.667 91 151.5C91.5 150.667 92.2 148.7 91 147.5C89.8 146.3 89.8333 145.333 90 145C90.5 144.167 91.8 142.6 93 143C94.2 143.4 95.8333 142.5 96.5 142C96.8333 142 97.4 142.2 97 143C96.6 143.8 96.8333 144.667 97 145C96.6667 145.5 95.8002 146.4 95 146C94.1998 145.6 93.9998 146.833 93.9998 147.5ZM101 139C100.833 139.167 99.9999 139.5 97.9999 139.5C96.4997 140 97 138.5 97.5 138C97.9 137.6 97.6666 137.5 97.4999 137.5C96.9999 137.333 96.3999 136.7 97.9999 135.5C99.5999 134.3 99.9999 134.667 99.9999 135C99.6665 135.5 99.2999 136.6 100.5 137C101.7 137.4 101.333 138.5 101 139ZM75.5181 149.306C77.4608 149.004 79.2745 150.366 79.9386 151.085C80.748 150.96 82.8277 150.473 84.6709 149.53C84.8993 149.22 84.9824 148.331 83.4883 147.248C81.9941 146.165 80.6247 146.597 80.1268 146.948C79.4002 147.608 77.7604 148.794 77.0133 148.252C76.2663 147.711 75.6228 148.194 75.3944 148.503C74.585 148.629 72.7785 148.744 72.0315 148.203C72.3844 148.696 73.5757 149.607 75.5181 149.306ZM97.8065 158.203C97.5174 158.59 97.0186 159.48 97.3357 159.942C97.6526 160.404 97.3172 160.993 97.1099 161.23C97.3059 160.869 97.0905 160.393 96.9584 160.201C96.7887 160.223 96.4982 160.177 96.6942 159.816C96.8902 159.455 96.1722 159.325 95.7887 159.305C95.575 159.263 95.2455 158.999 95.6376 158.277C96.0296 157.554 96.467 157.33 96.6368 157.308C97.2555 157.562 97.6744 158.011 97.8065 158.203ZM73.4848 142.985C73.1901 142.929 73.0443 142.402 73.0082 142.146C72.8854 142.123 72.5569 142.11 72.2255 142.247C72.1693 142.319 72.0876 142.569 72.2109 142.992C72.3341 143.414 72.5591 143.391 72.6562 143.326C72.8096 143.189 73.1317 142.968 73.1933 143.179C73.2549 143.39 73.3827 143.298 73.4389 143.226C73.5617 143.249 73.8229 143.349 73.8845 143.56C73.8741 143.392 73.7796 143.041 73.4848 142.985Z" fill="white"/>
<defs>
<linearGradient id="paint0_linear" x1="148.5" y1="143" x2="152.823" y2="43" gradientUnits="userSpaceOnUse">
<stop stop-color="#2D74FC"/>
<stop offset="1" stop-color="#B7F8F8"/>
</linearGradient>
</defs>
</svg>
