<svg width="253" height="236" viewBox="0 0 253 236" fill="none" xmlns="http://www.w3.org/2000/svg">
<path d="M198.166 22.135C166.566 -13.065 120.666 1.46829 101.666 13.135C70.0667 27.9349 52.4999 39.635 47.6664 43.635C-6.33361 90.635 22.6664 140.635 23.6664 143.635C24.4664 146.035 50.6664 187.968 63.6664 208.635C95.2664 248.635 144.5 235.968 165.166 224.635C170.366 220.635 204 200.302 220.166 190.635C264.166 154.635 253.833 110.302 243.166 92.635C231.566 65.035 208.333 34.135 198.166 22.135Z" fill="#EDF5FF"/>
<circle cx="116.666" cy="37.635" r="3" fill="#6498F9" fill-opacity="0.5"/>
<circle cx="3" cy="156" r="3" fill="#6498F9" fill-opacity="0.5"/>
<circle cx="151.666" cy="205.635" r="2" fill="#6498F9" fill-opacity="0.5"/>
<circle cx="161.166" cy="186.135" r="1.5" fill="#6498F9" fill-opacity="0.5"/>
<circle cx="89.166" cy="39.135" r="1.5" fill="#6498F9" fill-opacity="0.5"/>
<rect x="142.666" y="18.635" width="4" height="16" rx="2" fill="#8AB0F8"/>
<rect x="136.666" y="28.635" width="4" height="16" rx="2" transform="rotate(-90 136.666 28.635)" fill="#8AB0F8"/>
<rect x="221.125" y="111" width="2.75" height="11" rx="1.375" fill="#8AB0F8"/>
<rect x="217" y="117.875" width="2.75" height="11" rx="1.375" transform="rotate(-90 217 117.875)" fill="#8AB0F8"/>
<path d="M165 208C146.6 206.4 142.667 186.333 143 176.5L20.9995 175.5C19.7995 197.9 33.1662 206.5 39.9995 208H165Z" fill="url(#paint0_linear)"/>
<path d="M227.5 79C227.5 54.6 211.833 47.5 204 47H190.5L183.5 53L180 64L177 76L188 78.5L227.5 79Z" fill="url(#paint1_linear)"/>
<path d="M188 70C188.8 52.4 199 47.3333 204 47H77.4994C59.8994 49.8 56.166 64.8333 56.4994 72C57.6994 93.2 58.3327 150.5 58.4994 176.5H142.999C143.399 206.5 161.166 209.667 169.999 207.5C182.799 205.1 187.333 186.5 188 177.5C190.5 149 187 92 188 70Z" fill="url(#paint2_linear)"/>
<rect x="122" y="79" width="46" height="28" fill="#6D9DF8"/>
<rect x="113" y="127" width="36" height="3" rx="1.5" fill="#6D9DF8"/>
<rect x="113" y="133" width="23" height="3" rx="1.5" fill="#6D9DF8"/>
<rect x="113" y="145" width="9" height="11" rx="1" fill="#6D9DF8" fill-opacity="0.5"/>
<rect x="113" y="119" width="17" height="5" rx="2.5" fill="#AAA9F9"/>
<circle cx="181.5" cy="156.5" r="28.5" fill="url(#paint3_linear)"/>
<path d="M177.17 166.588L168.395 157.435C167.868 156.885 167.868 155.994 168.395 155.444L170.305 153.453C170.832 152.903 171.687 152.903 172.214 153.453L178.125 159.618L190.786 146.412C191.313 145.863 192.168 145.863 192.695 146.412L194.605 148.404C195.132 148.954 195.132 149.845 194.605 150.395L179.08 166.588C178.552 167.137 177.698 167.137 177.17 166.588Z" fill="white"/>
<path fill-rule="evenodd" clip-rule="evenodd" d="M75.5 97.1758V127.408C75.5 128.814 74.0896 129.778 72.7866 129.248C69.452 127.891 64.4207 125.768 59.2887 123.401C53.7913 125.968 48.2812 128.296 44.7134 129.748C43.4104 130.278 42 129.314 42 127.908V97.6758C42 96.6339 42.7999 95.7666 43.8384 95.6823L57.6059 94.5661C58.0037 94.1795 58.5604 93.9579 59.1616 94.0067L73.6616 95.1823C74.7001 95.2666 75.5 96.1339 75.5 97.1758Z" fill="url(#paint4_linear)"/>
<path d="M37.0525 43.4408C38.5849 38.4082 43.7546 35.4235 48.8792 36.6126L57.0145 38.5005C58.5018 38.8456 60.0482 38.8456 61.5354 38.5005L69.6707 36.6126C74.7954 35.4235 79.9651 38.4082 81.4975 43.4408L83.9303 51.4301C84.375 52.8906 85.1482 54.2299 86.1907 55.3453L91.8933 61.4468C95.4854 65.2903 95.4854 71.2597 91.8933 75.1032L86.1907 81.2047C85.1482 82.3201 84.375 83.6594 83.9303 85.1199L81.4975 93.1091C79.9651 98.1418 74.7954 101.127 69.6707 99.9373L61.5354 98.0495C60.0482 97.7044 58.5017 97.7044 57.0145 98.0495L48.8792 99.9373C43.7546 101.127 38.5849 98.1418 37.0525 93.1091L34.6197 85.1199C34.175 83.6594 33.4017 82.3201 32.3593 81.2047L26.6567 75.1032C23.0646 71.2597 23.0646 65.2903 26.6567 61.4468L32.3593 55.3453C33.4017 54.2299 34.175 52.8906 34.6197 51.4301L37.0525 43.4408Z" fill="url(#paint5_linear)"/>
<circle cx="59" cy="68" r="24" fill="#5D93F9"/>
<path d="M58.35 74H46.975C46.4365 74 46 73.5635 46 73.025V61.975C46 61.4365 46.4365 61 46.975 61H58.35V74ZM53.4475 71.0497C53.4772 71.1508 53.5388 71.2396 53.6231 71.3027C53.7075 71.3659 53.81 71.4 53.9153 71.4H54.8441C55.1781 71.4 55.4132 71.0718 55.3057 70.7556L52.9717 63.8878C52.9389 63.7914 52.8768 63.7077 52.794 63.6484C52.7112 63.5891 52.6119 63.5572 52.5101 63.5572H51.1902C51.0884 63.5572 50.9891 63.5891 50.9063 63.6484C50.8235 63.7077 50.7614 63.7914 50.7286 63.8878L48.3945 70.7556C48.2871 71.0718 48.5222 71.4 48.8561 71.4H49.7826C49.8884 71.4 49.9914 71.3655 50.0759 71.3018C50.1605 71.2381 50.222 71.1486 50.2512 71.0468L50.6216 69.7547H53.0677L53.4475 71.0497ZM51.8611 65.3452C51.8611 65.3452 52.0366 66.2008 52.1792 66.6943L52.6179 68.219H51.0713L51.5211 66.6943C51.6637 66.2007 51.8392 65.3452 51.8392 65.3452H51.8611ZM71.025 74H59.65V61H71.025C71.5635 61 72 61.4365 72 61.975V73.025C72 73.5635 71.5635 74 71.025 74ZM69.5625 64.7375H66.9625V64.0875C66.9625 63.8183 66.7442 63.6 66.475 63.6H65.825C65.5558 63.6 65.3375 63.8183 65.3375 64.0875V64.7375H62.7375C62.4683 64.7375 62.25 64.9558 62.25 65.225V65.875C62.25 66.1442 62.4683 66.3625 62.7375 66.3625H67.3731C67.1186 66.9434 66.702 67.5395 66.1534 68.1177C65.8869 67.8375 65.6497 67.5526 65.4479 67.2673C65.3001 67.0584 65.0179 66.9962 64.7981 67.1273L64.5024 67.3039L64.2384 67.4615C63.9964 67.6059 63.9259 67.9255 64.0867 68.1569C64.333 68.5115 64.6188 68.8611 64.9391 69.202C64.6092 69.4549 64.255 69.6994 63.8787 69.9318C63.6544 70.0703 63.5788 70.3606 63.7096 70.5895L64.0322 71.154C64.1688 71.393 64.4765 71.4719 64.7109 71.3277C65.2281 71.0096 65.7091 70.6706 66.1508 70.3165C66.5943 70.6724 67.0756 71.0113 67.5887 71.3273C67.8233 71.4718 68.1312 71.3931 68.2679 71.1539L68.5906 70.589C68.7211 70.3606 68.6462 70.0707 68.4226 69.9321C68.0576 69.7061 67.7042 69.4618 67.3639 69.2001C68.218 68.2891 68.817 67.3196 69.0991 66.3624H69.5625C69.8317 66.3624 70.05 66.1441 70.05 65.8749V65.2249C70.05 64.9558 69.8317 64.7375 69.5625 64.7375Z" fill="white"/>
<defs>
<linearGradient id="paint0_linear" x1="148.5" y1="185" x2="60.5" y2="208" gradientUnits="userSpaceOnUse">
<stop stop-color="#709FF8"/>
<stop offset="1" stop-color="#1B68FD"/>
</linearGradient>
<linearGradient id="paint1_linear" x1="220.5" y1="52.5" x2="184" y2="70" gradientUnits="userSpaceOnUse">
<stop stop-color="#709FF8"/>
<stop offset="1" stop-color="#1B68FD"/>
</linearGradient>
<linearGradient id="paint2_linear" x1="84.5" y1="191.5" x2="156" y2="50" gradientUnits="userSpaceOnUse">
<stop stop-color="#1866FD"/>
<stop offset="1" stop-color="#709FF8"/>
</linearGradient>
<linearGradient id="paint3_linear" x1="192.5" y1="188" x2="168.5" y2="134" gradientUnits="userSpaceOnUse">
<stop stop-color="#30AFE5"/>
<stop offset="1" stop-color="#57E9C6"/>
</linearGradient>
<linearGradient id="paint4_linear" x1="38.5" y1="139.5" x2="76" y2="100" gradientUnits="userSpaceOnUse">
<stop stop-color="#1462FD"/>
<stop offset="1" stop-color="#9249F1"/>
</linearGradient>
<linearGradient id="paint5_linear" x1="20.5" y1="86.5" x2="108.5" y2="66" gradientUnits="userSpaceOnUse">
<stop stop-color="#0066FF"/>
<stop offset="1" stop-color="#AD44EE"/>
</linearGradient>
</defs>
</svg>
