<svg width="104" height="110" viewBox="0 0 104 110" fill="none" xmlns="http://www.w3.org/2000/svg">
<path d="M60.1854 96.5794C56.5854 86.9794 49.0188 81.5794 45.6854 80.0794C41.6853 77.4692 25.3521 80.6585 17.6854 82.5794C-1.51458 82.5794 -1.31458 65.2462 1.18542 56.5796C6.78542 37.7797 33.1854 19.413 45.6854 12.5796C59.6854 2.17959 75.8521 -0.0872066 82.1854 0.0793952C99.7854 -1.1206 103.519 11.5794 103.185 18.0794C101.185 44.5794 102.185 66.0794 103.185 82.5794C103.985 95.7794 99.5188 101.746 97.1854 103.079C83.6854 114.079 64.6854 108.579 60.1854 96.5794Z" fill="#FFF1F2"/>
<path d="M55.6962 62.6356C50.4962 57.8356 35.5295 54.9689 28.6962 54.1356C19.4961 54.1356 13.8628 46.1357 12.1962 42.1357C7.39616 28.9357 18.1962 15.3023 24.1962 10.1356C38.5962 2.93557 51.1962 9.80224 55.6962 14.1356C57.6962 19.6356 59.6962 21.1356 76.1962 21.6356C89.3962 22.0356 97.3628 31.1356 99.6962 35.6356C108.096 46.0356 97.1962 57.9689 90.6962 62.6356C81.6962 71.1356 62.1962 68.6356 55.6962 62.6356Z" fill="#FF9D9F" fill-opacity="0.6"/>
</svg>
