<svg width="227" height="235" viewBox="0 0 227 235" fill="none" xmlns="http://www.w3.org/2000/svg">
<path fill-rule="evenodd" clip-rule="evenodd" d="M113.96 50.2835C112.767 48.5722 110.233 48.5722 109.04 50.2835L102.676 59.4054C72.8909 63.8243 50 90.2803 50 122.257C50 157.327 77.5345 185.757 111.5 185.757C145.466 185.757 173 157.327 173 122.257C173 90.2803 150.109 63.8243 120.324 59.4054L113.96 50.2835Z" fill="url(#paint0_linear)"/>
<circle cx="136.5" cy="107.257" r="7.5" fill="#D07C15"/>
<circle cx="87.5" cy="107.257" r="7.5" fill="#D07C15"/>
<path fill-rule="evenodd" clip-rule="evenodd" d="M93.0532 119.757C91.3119 119.757 90.3317 121.691 91.5261 122.958C96.6319 128.375 103.874 131.757 111.905 131.757C119.936 131.757 127.178 128.375 132.284 122.958C133.478 121.691 132.498 119.757 130.757 119.757C130.144 119.757 129.564 120.021 129.137 120.461C124.775 124.96 118.667 127.757 111.905 127.757C105.143 127.757 99.0348 124.96 94.6726 120.461C94.246 120.021 93.666 119.757 93.0532 119.757Z" fill="#D07C15"/>
<path fill-rule="evenodd" clip-rule="evenodd" d="M53.9722 144.757C62.7686 168.721 85.2074 185.757 111.5 185.757C137.792 185.757 160.231 168.721 169.028 144.757H53.9722Z" fill="url(#paint1_linear)"/>
<path d="M112 169.757L136.249 145.007H87.7513L112 169.757Z" fill="white"/>
<path d="M112 145.257V169.757L110 167.757L107 152.757L110 149.757L108 147.757L112 145.257Z" fill="#D07C15"/>
<path d="M112 145.257V169.757L114 167.757L117 152.757L114 149.757L116 147.757L112 145.257Z" fill="#D07C15"/>
<rect x="136" y="154.757" width="14" height="2" rx="1" fill="#D07C15"/>
<path d="M9.77441 229.766V172C9.77441 169.791 11.5653 168 13.7744 168H53.1115C54.1341 168 55.1179 168.392 55.8607 169.095L68.1715 180.743C68.97 181.499 69.4223 182.55 69.4223 183.649V229.766C69.4223 231.976 67.6314 233.766 65.4223 233.766H13.7744C11.5653 233.766 9.77441 231.976 9.77441 229.766Z" stroke="#EEC5C5" stroke-width="2"/>
<path d="M9 202.818H33.7998C38.9276 202.818 43.0845 206.975 43.0845 212.102C43.0845 217.23 38.9276 221.387 33.7998 221.387H9V202.818Z" fill="#EEC5C5"/>
<path d="M20.1855 211.635C20.1855 213.045 19.7832 214.125 18.9785 214.875C18.1777 215.625 17.0195 216 15.5039 216H13.0781V207.434H15.7676C17.166 207.434 18.252 207.803 19.0254 208.541C19.7988 209.279 20.1855 210.311 20.1855 211.635ZM18.2988 211.682C18.2988 209.842 17.4863 208.922 15.8613 208.922H14.8945V214.5H15.6738C17.4238 214.5 18.2988 213.561 18.2988 211.682ZM29.7363 211.705C29.7363 213.123 29.3848 214.213 28.6816 214.975C27.9785 215.736 26.9707 216.117 25.6582 216.117C24.3457 216.117 23.3379 215.736 22.6348 214.975C21.9316 214.213 21.5801 213.119 21.5801 211.693C21.5801 210.268 21.9316 209.18 22.6348 208.43C23.3418 207.676 24.3535 207.299 25.6699 207.299C26.9863 207.299 27.9922 207.678 28.6875 208.436C29.3867 209.193 29.7363 210.283 29.7363 211.705ZM23.4844 211.705C23.4844 212.662 23.666 213.383 24.0293 213.867C24.3926 214.352 24.9355 214.594 25.6582 214.594C27.1074 214.594 27.832 213.631 27.832 211.705C27.832 209.775 27.1113 208.811 25.6699 208.811C24.9473 208.811 24.4023 209.055 24.0352 209.543C23.668 210.027 23.4844 210.748 23.4844 211.705ZM35.1504 208.822C34.4668 208.822 33.9375 209.08 33.5625 209.596C33.1875 210.107 33 210.822 33 211.74C33 213.65 33.7168 214.605 35.1504 214.605C35.752 214.605 36.4805 214.455 37.3359 214.154V215.678C36.6328 215.971 35.8477 216.117 34.9805 216.117C33.7344 216.117 32.7812 215.74 32.1211 214.986C31.4609 214.229 31.1309 213.143 31.1309 211.729C31.1309 210.838 31.293 210.059 31.6172 209.391C31.9414 208.719 32.4062 208.205 33.0117 207.85C33.6211 207.49 34.334 207.311 35.1504 207.311C35.9824 207.311 36.8184 207.512 37.6582 207.914L37.0723 209.391C36.752 209.238 36.4297 209.105 36.1055 208.992C35.7812 208.879 35.4629 208.822 35.1504 208.822Z" fill="white"/>
<path d="M159.833 68V5C159.833 2.79086 161.624 1 163.833 1H206.57C207.595 1 208.581 1.39355 209.324 2.09941L222.754 14.8525C223.55 15.6077 224 16.6563 224 17.753V68C224 70.2091 222.209 72 220 72H163.833C161.624 72 159.833 70.2091 159.833 68Z" stroke="#ADC2EB" stroke-width="2"/>
<path d="M159 41H210C214.418 41 218 44.5817 218 49C218 53.4183 214.418 57 210 57H159V41Z" fill="#ADC2EB"/>
<path d="M163.922 51H162.711V46.2969H161.16V45.2891H165.473V46.2969H163.922V51ZM167.562 47.8242H167.953C168.336 47.8242 168.618 47.7604 168.801 47.6328C168.983 47.5052 169.074 47.3047 169.074 47.0312C169.074 46.7604 168.98 46.5677 168.793 46.4531C168.608 46.3385 168.32 46.2812 167.93 46.2812H167.562V47.8242ZM167.562 48.8086V51H166.352V45.2891H168.016C168.792 45.2891 169.366 45.431 169.738 45.7148C170.111 45.9961 170.297 46.4245 170.297 47C170.297 47.3359 170.204 47.6354 170.02 47.8984C169.835 48.1589 169.573 48.3633 169.234 48.5117L170.914 51H169.57L168.207 48.8086H167.562ZM175.129 51L174.715 49.6406H172.633L172.219 51H170.914L172.93 45.2656H174.41L176.434 51H175.129ZM174.426 48.625C174.043 47.3932 173.827 46.6966 173.777 46.5352C173.73 46.3737 173.697 46.2461 173.676 46.1523C173.59 46.4857 173.344 47.3099 172.938 48.625H174.426ZM182.223 51H180.684L178.199 46.6797H178.164C178.214 47.4427 178.238 47.987 178.238 48.3125V51H177.156V45.2891H178.684L181.164 49.5664H181.191C181.152 48.8242 181.133 48.2995 181.133 47.9922V45.2891H182.223V51ZM187.035 49.4141C187.035 49.9297 186.849 50.3359 186.477 50.6328C186.107 50.9297 185.591 51.0781 184.93 51.0781C184.32 51.0781 183.781 50.9635 183.312 50.7344V49.6094C183.698 49.7812 184.023 49.9023 184.289 49.9727C184.557 50.043 184.802 50.0781 185.023 50.0781C185.289 50.0781 185.492 50.0273 185.633 49.9258C185.776 49.8242 185.848 49.6732 185.848 49.4727C185.848 49.3607 185.816 49.2617 185.754 49.1758C185.691 49.0872 185.599 49.0026 185.477 48.9219C185.357 48.8411 185.111 48.7122 184.738 48.5352C184.389 48.3711 184.128 48.2135 183.953 48.0625C183.779 47.9115 183.639 47.7357 183.535 47.5352C183.431 47.3346 183.379 47.1003 183.379 46.832C183.379 46.3268 183.549 45.9297 183.891 45.6406C184.234 45.3516 184.708 45.207 185.312 45.207C185.609 45.207 185.892 45.2422 186.16 45.3125C186.431 45.3828 186.714 45.4818 187.008 45.6094L186.617 46.5508C186.312 46.4258 186.06 46.3385 185.859 46.2891C185.661 46.2396 185.466 46.2148 185.273 46.2148C185.044 46.2148 184.868 46.2682 184.746 46.375C184.624 46.4818 184.562 46.6211 184.562 46.793C184.562 46.8997 184.587 46.9935 184.637 47.0742C184.686 47.1523 184.764 47.2292 184.871 47.3047C184.98 47.3776 185.237 47.5104 185.641 47.7031C186.174 47.9583 186.54 48.2148 186.738 48.4727C186.936 48.7279 187.035 49.0417 187.035 49.4141ZM188.07 51V45.2891H189.281V50H191.598V51H188.07ZM196.09 51L195.676 49.6406H193.594L193.18 51H191.875L193.891 45.2656H195.371L197.395 51H196.09ZM195.387 48.625C195.004 47.3932 194.788 46.6966 194.738 46.5352C194.691 46.3737 194.658 46.2461 194.637 46.1523C194.551 46.4857 194.305 47.3099 193.898 48.625H195.387ZM200.047 51H198.836V46.2969H197.285V45.2891H201.598V46.2969H200.047V51ZM205.766 51H202.477V45.2891H205.766V46.2812H203.688V47.5352H205.621V48.5273H203.688V50H205.766V51ZM211.699 48.0898C211.699 49.0299 211.431 49.75 210.895 50.25C210.361 50.75 209.589 51 208.578 51H206.961V45.2891H208.754C209.686 45.2891 210.41 45.5352 210.926 46.0273C211.441 46.5195 211.699 47.207 211.699 48.0898ZM210.441 48.1211C210.441 46.8945 209.9 46.2812 208.816 46.2812H208.172V50H208.691C209.858 50 210.441 49.3737 210.441 48.1211Z" fill="white"/>
<path d="M142.862 13.5517C143.104 12.8211 144.047 12.627 144.558 13.2023L147.435 16.4384C147.947 17.0137 147.644 17.927 146.89 18.0823L142.649 18.9558C141.895 19.1111 141.255 18.392 141.498 17.6614L142.862 13.5517Z" fill="#EEB257"/>
<circle cx="9" cy="161" r="3" fill="#EEB257"/>
<path fill-rule="evenodd" clip-rule="evenodd" d="M145.045 14.9546C134.6 11.7339 123.502 10 112 10C50.1441 10 0 60.1441 0 122C0 136.556 2.77674 150.463 7.82942 163.221L10.2507 161.172C5.56734 149.016 3 135.808 3 122C3 61.801 51.801 13 112 13C123.339 13 134.274 14.7314 144.554 17.9443L145.045 14.9546ZM214.751 85.5339C218.797 96.9357 221 109.211 221 122C221 182.199 172.199 231 112 231C100.81 231 90.0137 229.314 79.8515 226.182L79.0326 229.069C89.4552 232.275 100.526 234 112 234C173.856 234 224 183.856 224 122C224 108.983 221.78 96.4856 217.697 84.8644L214.751 85.5339Z" fill="#EEB257"/>
<path d="M213.604 80.9868C213.726 80.2267 214.625 79.884 215.222 80.3699L218.581 83.1029C219.178 83.5887 219.025 84.5388 218.306 84.813L214.26 86.3552C213.54 86.6293 212.794 86.022 212.916 85.262L213.604 80.9868Z" fill="#EEB257"/>
<circle cx="80" cy="227" r="3" fill="#EEB257"/>
<defs>
<linearGradient id="paint0_linear" x1="111.5" y1="49" x2="111.5" y2="149.757" gradientUnits="userSpaceOnUse">
<stop stop-color="#FBD348"/>
<stop offset="1" stop-color="#EE8A19"/>
</linearGradient>
<linearGradient id="paint1_linear" x1="111.5" y1="58.7566" x2="111.5" y2="185.757" gradientUnits="userSpaceOnUse">
<stop offset="1" stop-color="#F3AA2B"/>
</linearGradient>
</defs>
</svg>
