<svg width="221" height="179" viewBox="0 0 221 179" fill="none" xmlns="http://www.w3.org/2000/svg">
<path fill-rule="evenodd" clip-rule="evenodd" d="M118.96 12.2835C117.767 10.5722 115.233 10.5722 114.04 12.2835L107.676 21.4054C77.8909 25.8243 55 52.2803 55 84.2567C55 119.327 82.5345 147.757 116.5 147.757C150.466 147.757 178 119.327 178 84.2567C178 52.2803 155.109 25.8243 125.324 21.4054L118.96 12.2835Z" fill="url(#paint0_linear)"/>
<path fill-rule="evenodd" clip-rule="evenodd" d="M58.9722 106.757C67.7686 130.721 90.2074 147.757 116.5 147.757C142.792 147.757 165.231 130.721 174.028 106.757H58.9722Z" fill="url(#paint1_linear)"/>
<circle cx="141.5" cy="69.2566" r="7.5" fill="#15AED0"/>
<circle cx="92.5" cy="69.2566" r="7.5" fill="#15AED0"/>
<path d="M117 131.757L141.249 107.007H92.7513L117 131.757Z" fill="white"/>
<path d="M117 107.257V131.757L115 129.757L112 114.757L115 111.757L113 109.757L117 107.257Z" fill="#15AED0"/>
<path d="M117 107.257V131.757L119 129.757L122 114.757L119 111.757L121 109.757L117 107.257Z" fill="#15AED0"/>
<rect x="141" y="116.757" width="14" height="2" rx="1" fill="#15AED0"/>
<path d="M136 84C129.5 90.5 127.493 97.0001 117 97.0001C106.507 97.0001 104.5 89 98 84C98 76 106.507 87.0001 117 87.0001C127.493 87.0001 136.5 76.5 136 84Z" fill="#15AED0"/>
<path fill-rule="evenodd" clip-rule="evenodd" d="M212.575 84.4082C211.757 135.104 169.988 176 118.52 176C87.9449 176 60.7855 161.566 43.603 139.208L42.7435 138.09L41.334 138.038L4.26621 136.681C3.40395 136.65 3.02127 135.71 3.45497 135.113L25.8929 104.225L26.6741 103.149L26.4023 101.848C25.1241 95.7302 24.4521 89.3906 24.4521 82.8925C24.4521 52.064 39.5959 24.7186 62.9348 7.77029L61.2303 5.30103C37.1134 22.7868 21.4521 51.0288 21.4521 82.8925C21.4521 89.5981 22.1456 96.1432 23.4657 102.461L1.02777 133.35C-0.84758 135.932 0.946842 139.562 4.15647 139.679L41.2243 141.036C58.9545 164.107 86.9804 179 118.52 179C171.872 179 215.172 136.381 215.584 83.6523L212.575 84.4082Z" fill="#A9CBEB"/>
<path d="M219.5 80.49C219.5 83.6492 216.953 86.1981 213.826 86.1981C210.699 86.1981 208.152 83.6492 208.152 80.49C208.152 77.3308 210.699 74.782 213.826 74.782C216.953 74.782 219.5 77.3308 219.5 80.49Z" stroke="#A9CBEB" stroke-width="3"/>
<path d="M67.6517 4.80537C67.6517 6.63759 66.1753 8.11074 64.369 8.11074C62.5628 8.11074 61.0864 6.63759 61.0864 4.80537C61.0864 2.97315 62.5628 1.5 64.369 1.5C66.1753 1.5 67.6517 2.97315 67.6517 4.80537Z" stroke="#A9CBEB" stroke-width="3"/>
<defs>
<linearGradient id="paint0_linear" x1="116.5" y1="11" x2="116.5" y2="111.757" gradientUnits="userSpaceOnUse">
<stop stop-color="#48E6FB"/>
<stop offset="1" stop-color="#19C8EE"/>
</linearGradient>
<linearGradient id="paint1_linear" x1="116.5" y1="20.7566" x2="116.5" y2="147.757" gradientUnits="userSpaceOnUse">
<stop offset="1" stop-color="#92C0E2"/>
</linearGradient>
</defs>
</svg>
