<svg width="130" height="109" viewBox="0 0 130 109" fill="none" xmlns="http://www.w3.org/2000/svg">
<path d="M69.9031 88.5115C65.1031 77.3115 51.5697 77.8449 45.4031 79.5115C44.2029 79.7919 37.5698 80.9618 34.4033 81.5117C25.6035 83.1119 20.0699 79.8451 18.4031 78.0117C12.4031 70.4117 14.9031 58.5117 16.9031 53.5117C25.4031 38.5117 41.4031 25.0117 59.9031 12.5117C74.7031 2.51172 93.7364 0.0117491 101.403 0.0117642C112.603 -0.388236 116.736 9.51176 117.403 14.5118C114.903 28.5118 116.903 81.0118 117.403 87.5118C117.803 92.7118 114.57 99.0118 112.903 101.512C107.303 109.512 94.5697 109.178 88.9031 108.012C84.5697 106.178 74.7031 99.7115 69.9031 88.5115Z" fill="#FDF9BF"/>
<path d="M74.9035 81.5119C70.9035 66.3119 57.2368 63.5119 50.9035 64.0119C31.7035 62.8121 17.2368 54.8452 12.4035 51.0117C-5.99653 35.0117 0.0701318 17.6784 5.40347 11.0118C12.2035 5.81184 29.9035 8.84514 37.9035 11.0118C59.9035 16.0118 78.4035 10.0118 105.903 11.0118C127.903 11.8118 130.737 22.3451 129.403 27.5118C129.803 33.9118 118.903 52.1784 113.403 60.5118C111.903 61.6785 108.703 65.0119 107.903 69.0118C107.103 73.0117 103.903 79.0118 102.403 81.5119C87.6035 95.5119 77.9035 87.3453 74.9035 81.5119Z" fill="#FFD07E" fill-opacity="0.5"/>
</svg>
